<svg xmlns="http://www.w3.org/2000/svg" version="1.1" xmlns:xlink="http://www.w3.org/1999/xlink" xmlns:svgjs="http://svgjs.dev/svgjs" width="4032" height="1000" preserveAspectRatio="none" viewBox="0 0 4032 1000"><g mask="url('#SvgjsMask1020')" fill="none"><path d="M 0,732 C 115.2,667.8 345.6,444.2 576,411 C 806.4,377.8 921.6,617.6 1152,566 C 1382.4,514.4 1497.6,129.8 1728,153 C 1958.4,176.2 2073.6,636 2304,682 C 2534.4,728 2649.6,352.6 2880,383 C 3110.4,413.4 3225.6,872.6 3456,834 C 3686.4,795.4 3916.8,318.8 4032,190L4032 1000L0 1000z" fill="rgba(27, 92, 41, 1)"></path><path d="M 0,818 C 268.8,701 806.4,213 1344,233 C 1881.6,253 2150.4,873.2 2688,918 C 3225.6,962.8 3763.2,549.2 4032,457L4032 1000L0 1000z" fill="rgba(47, 158, 68, 1)"></path></g><defs><mask id="SvgjsMask1020"><rect width="4032" height="1000" fill="#ffffff"></rect></mask></defs></svg>