<svg xmlns="http://www.w3.org/2000/svg" width="4032" height="1000" preserveAspectRatio="none"><g mask="url('#SvgjsMask1020')" fill="none"><path d="M0 732c115.2-64.2 345.6-287.8 576-321 230.4-33.2 345.6 206.6 576 155 230.4-51.6 345.6-436.2 576-413 230.4 23.2 345.6 483 576 529 230.4 46 345.6-329.4 576-299 230.4 30.4 345.6 489.6 576 451 230.4-38.6 460.8-515.2 576-644v810H0z" fill="rgba(27, 92, 41, 1)"/><path d="M0 818c268.8-117 806.4-605 1344-585s806.4 640.2 1344 685c537.6 44.8 1075.2-368.8 1344-461v543H0z" fill="rgba(47, 158, 68, 1)"/></g><defs><mask id="SvgjsMask1020"><path fill="#fff" d="M0 0h4032v1000H0z"/></mask></defs></svg>