<svg xmlns="http://www.w3.org/2000/svg" version="1.1" xmlns:xlink="http://www.w3.org/1999/xlink" xmlns:svgjs="http://svgjs.dev/svgjs" width="2048" height="1556" preserveAspectRatio="none" viewBox="0 0 2048 1556"><g mask="url('#SvgjsMask1102')" fill="none"><path d="M -637.1719914312584,176 C -432.37,426.2 -22.77,1389.6 386.82800856874155,1427 C 796.43,1464.4 1001.23,419.8 1410.8280085687416,363 C 1820.43,306.2 2307.39,1148 2434.8280085687416,1143 C 2562.26,1138 2125.37,499 2048,338" stroke="rgba(47, 158, 68, 1)" stroke-width="2"></path><path d="M -1996.7002218406662,8 C -1791.9,181.4 -1382.3,819.8 -972.7002218406662,875 C -563.1,930.2 -358.3,175.2 51.299778159333755,284 C 460.9,392.8 675.96,1333.6 1075.2997781593338,1419 C 1474.64,1504.4 1853.46,852.6 2048,711" stroke="rgba(47, 158, 68, 1)" stroke-width="2"></path><path d="M -664.6167983880134,821 C -459.82,666.6 -50.22,-14.6 359.3832016119866,49 C 768.98,112.6 973.78,1083.4 1383.3832016119866,1139 C 1792.98,1194.6 2274.46,289.8 2407.383201611987,327 C 2540.31,364.2 2119.88,1125.4 2048,1325" stroke="rgba(47, 158, 68, 1)" stroke-width="2"></path><path d="M -80.48637573128008,1555 C 124.31,1377 533.91,764.8 943.5136242687199,665 C 1353.11,565.2 1557.91,1181.2 1967.51362426872,1056 C 2377.11,930.8 2975.42,92 2991.51362426872,39 C 3007.61,-14 2236.7,640.6 2048,791" stroke="rgba(47, 158, 68, 1)" stroke-width="2"></path><path d="M -562.2127699298126,829 C -357.41,794.8 52.19,549.6 461.78723007018743,658 C 871.39,766.4 1076.19,1367.2 1485.7872300701874,1371 C 1895.39,1374.8 2397.34,675.2 2509.7872300701874,677 C 2622.23,678.8 2140.36,1239.4 2048,1380" stroke="rgba(47, 158, 68, 1)" stroke-width="2"></path></g><defs><mask id="SvgjsMask1102"><rect width="2048" height="1556" fill="#ffffff"></rect></mask></defs></svg>